<svg width="97" height="97" xmlns="http://www.w3.org/2000/svg"><g id="Startseite-reduzierter-Icon" fill="none" fill-rule="evenodd"><g id="START_Desktop-1400px_Noerdisch_LAY9" transform="translate(-652 -8003)"><g id="Group-3" transform="translate(652 8003)"><g id="Group-5"><path d="M72.896 6.723A47.65 47.65 0 0 0 48.516.045C21.958.045.428 21.693.428 48.398c0 26.704 21.53 48.352 48.088 48.352 26.56 0 48.09-21.648 48.09-48.352 0-8.875-2.39-17.186-6.54-24.334l-.59 2.003c3.586 6.638 5.623 14.245 5.623 22.33 0 25.868-20.854 46.839-46.583 46.839-25.727 0-46.582-20.97-46.582-46.838 0-25.868 20.855-46.839 46.582-46.839 8.116 0 15.744 2.09 22.387 5.758l1.993-.594z" id="Fill-6" fill="#87CDD7"/><path d="M87.729 8.642l-22.184 6.616.36.364c4.602.634 8.197 2.106 10.739 4.452 2.48 2.294 4.06 5.624 4.777 9.951l6.308-21.383z" id="Fill-8" fill="#87CDD7"/><path d="M65.751 67.147V45.475c0-2.622-.27-5.022-.81-7.2-.544-2.177-1.478-4.044-2.803-5.603-1.327-1.56-3.1-2.772-5.319-3.637-2.22-.865-5.007-1.3-8.363-1.3-3.735 0-7.037.224-9.906.668-2.87.446-5.17.867-6.902 1.263V51.5l7.552-7.592v-9.344c.27-.05.716-.124 1.34-.223a34.22 34.22 0 0 1 2.11-.26c.784-.075 1.61-.136 2.477-.186a45.279 45.279 0 0 1 2.517-.073c2.002 0 3.68.234 5.035.704 1.353.47 2.436 1.224 3.247 2.263.812 1.04 1.393 2.402 1.746 4.083.352 1.683.528 3.71.528 6.086v20.188h7.551z" id="Fill-10" fill="#FFF"/><path id="Fill-13" fill="#87CDD7" d="M31.649 60.582v6.565h7.55V52.99z"/></g></g></g></g></svg>